# xmcd
#
# Track frame offsets:
#	150
#	15045
#	26012
#	40741
#	57551
#	69417
#	86755
#	103116
#	119861
#	136155
#	150011
#	170994
#
# Disc length: 2496 seconds
#
# Revision: 0
# Processed by: cddbd v1.5.1PL0 Copyright (c) Steve Scherf et al.
# Submitted via: dBpowerAMP V4.0
#
DISCID=9909be0c
DTITLE=Alejandro Pico - Recuento dos
DYEAR=2003
DGENRE=Trova
TTITLE0=En Libertad
TTITLE1=Para ti
TTITLE2=Solo te atormentas
TTITLE3=Desde Adan y Eva
TTITLE4=Enero 30
TTITLE5=Vicio de la intimidad
TTITLE6=Compañera
TTITLE7=Las chicas de mi barrio
TTITLE8=De ti me acordare
TTITLE9=La cancion
TTITLE10=Los deseos de la muerte
TTITLE11=Volvere
EXTD=
EXTT0=
EXTT1=
EXTT2=
EXTT3=
EXTT4=
EXTT5=
EXTT6=
EXTT7=
EXTT8=
EXTT9=
EXTT10=
EXTT11=
PLAYORDER=
